# Blender v2.91.0 OBJ File: ''
# www.blender.org
mtllib trungle 2.mtl
o Cube
v 1.000000 1.000000 -1.000000
v 1.000000 -1.000000 -1.000000
v 1.000000 -1.000000 1.000000
v -1.000000 1.000000 -1.000000
v -1.000000 -1.000000 -1.000000
v -1.000000 1.000000 1.000000
v -1.000000 -1.000000 1.000000
vt 0.625000 0.000000
vt 0.375000 0.750000
vt 0.625000 0.500000
vt 0.375000 0.500000
vt 0.375000 0.000000
vt 0.375000 0.250000
vt 0.125000 0.500000
vt 0.125000 0.750000
vt 0.625000 0.250000
vn 0.5774 0.5774 0.5774
vn 1.0000 0.0000 0.0000
vn -1.0000 0.0000 0.0000
vn 0.0000 -1.0000 0.0000
vn 0.0000 0.0000 1.0000
vn 0.0000 0.0000 -1.0000
vn 0.0000 1.0000 0.0000
usemtl Material
s off
f 6/1/1 3/2/1 1/3/1
f 2/4/2 1/3/2 3/2/2
f 7/5/3 6/1/3 5/6/3
f 5/7/4 2/4/4 7/8/4
f 6/1/5 7/8/5 3/2/5
f 5/6/6 4/9/6 2/4/6
f 1/3/7 4/9/7 6/1/7
f 2/4/6 4/9/6 1/3/6
f 5/6/3 6/1/3 4/9/3
f 7/8/4 2/4/4 3/2/4
