# Blender v2.91.0 OBJ File: ''
# www.blender.org
mtllib trungle.mtl
o Cube
v 1.598182 -0.938890 -1.000000
v 1.000000 -1.000000 1.000000
v -1.000000 1.000000 -1.000000
v -1.000000 -1.000000 -1.000000
v -1.000000 -0.130771 0.795869
v -1.000000 -1.000000 1.000000
vt 0.375000 0.250000
vt 0.625000 0.250000
vt 0.375000 0.500000
vt 0.625000 0.000000
vt 0.375000 0.750000
vt 0.125000 0.750000
vn 0.0000 0.0000 -1.0000
vn 0.2991 0.8075 0.5084
vn -1.0000 0.0000 0.0000
vn 0.0235 -0.9997 0.0000
vn 0.5861 0.7854 0.1993
vn 0.0000 0.2286 0.9735
vn 0.0000 -0.9995 -0.0305
usemtl Material
s off
f 4/1/1 3/2/1 1/3/1
f 3/2/2 5/4/2 2/5/2
f 3/2/3 4/1/3 5/4/3
f 4/1/4 1/3/4 6/6/4
f 1/3/5 3/2/5 2/5/5
f 5/4/6 6/6/6 2/5/6
f 6/6/3 5/4/3 4/1/3
f 1/3/7 2/5/7 6/6/7
